<svg id="visual" viewBox="0 0 1280 720" width="1280" height="720" xmlns="http://www.w3.org/2000/svg" xmlns:xlink="http://www.w3.org/1999/xlink" version="1.1"><rect x="0" y="0" width="1280" height="720" fill="#ffffff"></rect><defs><linearGradient id="grad1_0" x1="43.8%" y1="100%" x2="100%" y2="0%"><stop offset="14.444444444444446%" stop-color="#009473" stop-opacity="1"></stop><stop offset="85.55555555555554%" stop-color="#009473" stop-opacity="1"></stop></linearGradient></defs><defs><linearGradient id="grad1_1" x1="43.8%" y1="100%" x2="100%" y2="0%"><stop offset="14.444444444444446%" stop-color="#009473" stop-opacity="1"></stop><stop offset="85.55555555555554%" stop-color="#43a386" stop-opacity="1"></stop></linearGradient></defs><defs><linearGradient id="grad1_2" x1="43.8%" y1="100%" x2="100%" y2="0%"><stop offset="14.444444444444446%" stop-color="#66b399" stop-opacity="1"></stop><stop offset="85.55555555555554%" stop-color="#43a386" stop-opacity="1"></stop></linearGradient></defs><defs><linearGradient id="grad1_3" x1="43.8%" y1="100%" x2="100%" y2="0%"><stop offset="14.444444444444446%" stop-color="#66b399" stop-opacity="1"></stop><stop offset="85.55555555555554%" stop-color="#86c2ad" stop-opacity="1"></stop></linearGradient></defs><defs><linearGradient id="grad1_4" x1="43.8%" y1="100%" x2="100%" y2="0%"><stop offset="14.444444444444446%" stop-color="#a5d1c1" stop-opacity="1"></stop><stop offset="85.55555555555554%" stop-color="#86c2ad" stop-opacity="1"></stop></linearGradient></defs><defs><linearGradient id="grad1_5" x1="43.8%" y1="100%" x2="100%" y2="0%"><stop offset="14.444444444444446%" stop-color="#a5d1c1" stop-opacity="1"></stop><stop offset="85.55555555555554%" stop-color="#c3e0d5" stop-opacity="1"></stop></linearGradient></defs><defs><linearGradient id="grad1_6" x1="43.8%" y1="100%" x2="100%" y2="0%"><stop offset="14.444444444444446%" stop-color="#e1f0ea" stop-opacity="1"></stop><stop offset="85.55555555555554%" stop-color="#c3e0d5" stop-opacity="1"></stop></linearGradient></defs><defs><linearGradient id="grad1_7" x1="43.8%" y1="100%" x2="100%" y2="0%"><stop offset="14.444444444444446%" stop-color="#e1f0ea" stop-opacity="1"></stop><stop offset="85.55555555555554%" stop-color="#ffffff" stop-opacity="1"></stop></linearGradient></defs><defs><linearGradient id="grad2_0" x1="0%" y1="100%" x2="56.3%" y2="0%"><stop offset="14.444444444444446%" stop-color="#009473" stop-opacity="1"></stop><stop offset="85.55555555555554%" stop-color="#009473" stop-opacity="1"></stop></linearGradient></defs><defs><linearGradient id="grad2_1" x1="0%" y1="100%" x2="56.3%" y2="0%"><stop offset="14.444444444444446%" stop-color="#43a386" stop-opacity="1"></stop><stop offset="85.55555555555554%" stop-color="#009473" stop-opacity="1"></stop></linearGradient></defs><defs><linearGradient id="grad2_2" x1="0%" y1="100%" x2="56.3%" y2="0%"><stop offset="14.444444444444446%" stop-color="#43a386" stop-opacity="1"></stop><stop offset="85.55555555555554%" stop-color="#66b399" stop-opacity="1"></stop></linearGradient></defs><defs><linearGradient id="grad2_3" x1="0%" y1="100%" x2="56.3%" y2="0%"><stop offset="14.444444444444446%" stop-color="#86c2ad" stop-opacity="1"></stop><stop offset="85.55555555555554%" stop-color="#66b399" stop-opacity="1"></stop></linearGradient></defs><defs><linearGradient id="grad2_4" x1="0%" y1="100%" x2="56.3%" y2="0%"><stop offset="14.444444444444446%" stop-color="#86c2ad" stop-opacity="1"></stop><stop offset="85.55555555555554%" stop-color="#a5d1c1" stop-opacity="1"></stop></linearGradient></defs><defs><linearGradient id="grad2_5" x1="0%" y1="100%" x2="56.3%" y2="0%"><stop offset="14.444444444444446%" stop-color="#c3e0d5" stop-opacity="1"></stop><stop offset="85.55555555555554%" stop-color="#a5d1c1" stop-opacity="1"></stop></linearGradient></defs><defs><linearGradient id="grad2_6" x1="0%" y1="100%" x2="56.3%" y2="0%"><stop offset="14.444444444444446%" stop-color="#c3e0d5" stop-opacity="1"></stop><stop offset="85.55555555555554%" stop-color="#e1f0ea" stop-opacity="1"></stop></linearGradient></defs><defs><linearGradient id="grad2_7" x1="0%" y1="100%" x2="56.3%" y2="0%"><stop offset="14.444444444444446%" stop-color="#ffffff" stop-opacity="1"></stop><stop offset="85.55555555555554%" stop-color="#e1f0ea" stop-opacity="1"></stop></linearGradient></defs><g transform="translate(1280, 720)"><path d="M-432 0C-388.8 -34.9 -345.5 -69.7 -329.1 -106.9C-312.6 -144.1 -323 -183.6 -317.9 -231C-312.9 -278.4 -292.5 -333.6 -253.9 -349.5C-215.4 -365.4 -158.7 -341.9 -113.4 -349C-68.1 -356.2 -34 -394.1 0 -432L0 0Z" fill="#f0f7f4"></path><path d="M-378 0C-340.2 -30.5 -302.3 -61 -287.9 -93.6C-273.5 -126.1 -282.6 -160.7 -278.2 -202.1C-273.8 -243.6 -255.9 -291.9 -222.2 -305.8C-188.5 -319.7 -138.9 -299.1 -99.2 -305.4C-59.6 -311.7 -29.8 -344.8 0 -378L0 0Z" fill="#d2e8df"></path><path d="M-324 0C-291.6 -26.1 -259.1 -52.3 -246.8 -80.2C-234.5 -108.1 -242.2 -137.7 -238.5 -173.2C-234.7 -208.8 -219.3 -250.2 -190.4 -262.1C-161.5 -274 -119.1 -256.4 -85.1 -261.8C-51.1 -267.2 -25.5 -295.6 0 -324L0 0Z" fill="#b4d9cb"></path><path d="M-270 0C-243 -21.8 -215.9 -43.6 -205.7 -66.8C-195.4 -90.1 -201.9 -114.8 -198.7 -144.4C-195.6 -174 -182.8 -208.5 -158.7 -218.4C-134.6 -228.4 -99.2 -213.7 -70.9 -218.1C-42.5 -222.6 -21.3 -246.3 0 -270L0 0Z" fill="#96cab7"></path><path d="M-216 0C-194.4 -17.4 -172.8 -34.9 -164.5 -53.5C-156.3 -72.1 -161.5 -91.8 -159 -115.5C-156.5 -139.2 -146.2 -166.8 -127 -174.7C-107.7 -182.7 -79.4 -170.9 -56.7 -174.5C-34 -178.1 -17 -197.1 0 -216L0 0Z" fill="#77baa3"></path><path d="M-162 0C-145.8 -13.1 -129.6 -26.1 -123.4 -40.1C-117.2 -54 -121.1 -68.9 -119.2 -86.6C-117.3 -104.4 -109.7 -125.1 -95.2 -131.1C-80.8 -137 -59.5 -128.2 -42.5 -130.9C-25.5 -133.6 -12.8 -147.8 0 -162L0 0Z" fill="#55ab8f"></path><path d="M-108 0C-97.2 -8.7 -86.4 -17.4 -82.3 -26.7C-78.2 -36 -80.7 -45.9 -79.5 -57.7C-78.2 -69.6 -73.1 -83.4 -63.5 -87.4C-53.8 -91.3 -39.7 -85.5 -28.4 -87.3C-17 -89.1 -8.5 -98.5 0 -108L0 0Z" fill="#2c9c7c"></path><path d="M-54 0C-48.6 -4.4 -43.2 -8.7 -41.1 -13.4C-39.1 -18 -40.4 -23 -39.7 -28.9C-39.1 -34.8 -36.6 -41.7 -31.7 -43.7C-26.9 -45.7 -19.8 -42.7 -14.2 -43.6C-8.5 -44.5 -4.3 -49.3 0 -54L0 0Z" fill="#009473"></path></g><g transform="translate(0, 0)"><path d="M432 0C380.7 30.8 329.5 61.5 320.5 104.1C311.5 146.7 344.8 201.1 341.4 248C338 295 298 334.4 253.9 349.5C209.8 364.6 161.7 355.5 118.7 365.2C75.7 374.9 37.8 403.5 0 432L0 0Z" fill="#f0f7f4"></path><path d="M378 0C333.2 26.9 288.3 53.9 280.4 91.1C272.6 128.4 301.7 176 298.7 217C295.8 258.1 260.8 292.6 222.2 305.8C183.6 319.1 141.5 311.1 103.8 319.6C66.2 328 33.1 353 0 378L0 0Z" fill="#d2e8df"></path><path d="M324 0C285.6 23.1 247.1 46.2 240.4 78.1C233.6 110 258.6 150.9 256.1 186C253.5 221.2 223.5 250.8 190.4 262.1C157.4 273.5 121.2 266.6 89 273.9C56.7 281.2 28.4 302.6 0 324L0 0Z" fill="#b4d9cb"></path><path d="M270 0C238 19.2 205.9 38.5 200.3 65.1C194.7 91.7 215.5 125.7 213.4 155C211.3 184.3 186.3 209 158.7 218.4C131.1 227.9 101 222.2 74.2 228.3C47.3 234.3 23.6 252.2 0 270L0 0Z" fill="#96cab7"></path><path d="M216 0C190.4 15.4 164.7 30.8 160.3 52.1C155.8 73.4 172.4 100.6 170.7 124C169 147.5 149 167.2 127 174.7C104.9 182.3 80.8 177.7 59.3 182.6C37.8 187.5 18.9 201.7 0 216L0 0Z" fill="#77baa3"></path><path d="M162 0C142.8 11.5 123.6 23.1 120.2 39.1C116.8 55 129.3 75.4 128 93C126.8 110.6 111.8 125.4 95.2 131.1C78.7 136.7 60.6 133.3 44.5 137C28.4 140.6 14.2 151.3 0 162L0 0Z" fill="#55ab8f"></path><path d="M108 0C95.2 7.7 82.4 15.4 80.1 26C77.9 36.7 86.2 50.3 85.4 62C84.5 73.7 74.5 83.6 63.5 87.4C52.5 91.2 40.4 88.9 29.7 91.3C18.9 93.7 9.5 100.9 0 108L0 0Z" fill="#2c9c7c"></path><path d="M54 0C47.6 3.8 41.2 7.7 40.1 13C38.9 18.3 43.1 25.1 42.7 31C42.3 36.9 37.3 41.8 31.7 43.7C26.2 45.6 20.2 44.4 14.8 45.7C9.5 46.9 4.7 50.4 0 54L0 0Z" fill="#009473"></path></g></svg>